# xmcd
#
# Track frame offsets:
#	182
#	18287
#	36315
#	53835
#	73092
#	88595
#	104727
#	120537
#	139862
#	158240
#
# Disc length: 2313 seconds
#
# Revision: 1
# Processed by: cddbd v1.4PL0 Copyright (c) Steve Scherf et al.
# Submitted via: EasyCDDAExtractor 6.0.0.1
#
DISCID=8909070a
DTITLE=Doug Maynard - Lost in the Blues
DYEAR=1990
DGENRE=Blues
TTITLE0=Lost in the Blues
TTITLE1=Real Love
TTITLE2=Rave On
TTITLE3=Blue Devon
TTITLE4=Keep On Getting Up
TTITLE5=Stuck With You
TTITLE6=I Can Dream About You
TTITLE7=I Found You
TTITLE8=Watch What You Ask For
TTITLE9=Take Me to Heaven
EXTD=
EXTT0=
EXTT1=
EXTT2=
EXTT3=
EXTT4=
EXTT5=
EXTT6=
EXTT7=
EXTT8=
EXTT9=
PLAYORDER=
